<svg id="Layer_1" data-name="Layer 1" xmlns="http://www.w3.org/2000/svg" viewBox="0 0 453.62 44.31"><defs><style>.cls-1{fill:#fff;}.cls-2,.cls-3{font-size:12px;}.cls-2{font-family:ArialNarrow, Arial;}.cls-3{font-family:Arial-BoldMT, Arial;font-weight:700;}.cls-4{letter-spacing:-0.02em;}.cls-5,.cls-6,.cls-7,.cls-8,.cls-9{stroke:#000;stroke-miterlimit:10;}.cls-5{stroke-width:0.25px;}.cls-6,.cls-7,.cls-8,.cls-9{fill:none;stroke-width:0.75px;}.cls-7{stroke-dasharray:6.33 6.33;}.cls-8{stroke-dasharray:11.23 11.23;}.cls-9{stroke-dasharray:12.64 12.64;}</style></defs><title>figure1</title><rect class="cls-1" x="0.25" y="28.56" width="41.12" height="15.5"/><path d="M75.5,48.52v15H34.88v-15H75.5M76,48H34.38V64H76V48Z" transform="translate(-34.38 -19.71)"/><text class="cls-2" transform="translate(6.85 39.62)">Source</text><rect class="cls-1" x="60.67" y="28.56" width="41.7" height="15.5"/><path d="M136.5,48.52v15H95.3v-15h41.2m.5-.5H94.8V64H137V48Z" transform="translate(-34.38 -19.71)"/><text class="cls-2" transform="translate(66.06 39.62)">Codeur</text><rect class="cls-1" x="121.67" y="28.56" width="47.7" height="15.5"/><path d="M203.5,48.52v15H156.3v-15h47.2m.5-.5H155.8V64H204V48Z" transform="translate(-34.38 -19.71)"/><text class="cls-2" transform="translate(125.75 39.62)">Emetteur</text><rect class="cls-1" x="194.17" y="28.81" width="33" height="15"/><path d="M261.05,49V63h-32V49h32m1-1h-34V64h34V48Z" transform="translate(-34.38 -19.71)"/><text class="cls-2" transform="translate(198.81 39.62)">VOIE</text><rect class="cls-1" x="252.61" y="28.56" width="52.76" height="15.5"/><path d="M339.5,48.52v15H287.24v-15H339.5m.5-.5H286.74V64H340V48Z" transform="translate(-34.38 -19.71)"/><text class="cls-2" transform="translate(256.81 39.62)">Récepteur</text><rect class="cls-1" x="324.67" y="28.56" width="49.7" height="15.5"/><path d="M408.5,48.52v15H359.3v-15h49.2m.5-.5H358.8V64H409V48Z" transform="translate(-34.38 -19.71)"/><text class="cls-2" transform="translate(328.75 39.62)">Décodeur</text><rect class="cls-1" x="393.67" y="28.56" width="59.7" height="15.5"/><path d="M487.5,48.52v15H428.3v-15h59.2m.5-.5H427.8V64H488V48Z" transform="translate(-34.38 -19.71)"/><text class="cls-2" transform="translate(397.75 39.62)">Destinataire</text><text class="cls-3" transform="translate(189.82 10.29)">CANA<tspan class="cls-4" x="34.66" y="0">L</tspan></text><path d="M76,56.39H90.25a.38.38,0,0,0,0-.75H76a.38.38,0,0,0,0,.75Z" transform="translate(-34.38 -19.71)"/><polygon class="cls-5" points="60.62 36.31 56.02 34.07 56.02 38.55 60.62 36.31"/><path d="M137,56.39h14.25a.38.38,0,0,0,0-.75H137a.38.38,0,0,0,0,.75Z" transform="translate(-34.38 -19.71)"/><polygon class="cls-5" points="121.62 36.31 117.02 34.07 117.02 38.55 121.62 36.31"/><path d="M204,56.39h18a.38.38,0,0,0,0-.75H204a.38.38,0,0,0,0,.75Z" transform="translate(-34.38 -19.71)"/><polygon class="cls-5" points="193.62 36.31 187.8 34.07 187.8 38.55 193.62 36.31"/><path d="M340,56.39h14.25a.38.38,0,0,0,0-.75H340a.38.38,0,0,0,0,.75Z" transform="translate(-34.38 -19.71)"/><polygon class="cls-5" points="324.62 36.31 320.02 34.07 320.02 38.55 324.62 36.31"/><path d="M263,56.39h18a.38.38,0,0,0,0-.75H263a.38.38,0,0,0,0,.75Z" transform="translate(-34.38 -19.71)"/><polygon class="cls-5" points="252.62 36.31 246.8 34.07 246.8 38.55 252.62 36.31"/><path d="M409,56.39h14.25a.38.38,0,0,0,0-.75H409a.38.38,0,0,0,0,.75Z" transform="translate(-34.38 -19.71)"/><polygon class="cls-5" points="393.62 36.31 389.02 34.07 389.02 38.55 393.62 36.31"/><line class="cls-6" x1="48.12" y1="35.79" x2="48.12" y2="29.79"/><line class="cls-7" x1="48.12" y1="23.46" x2="48.12" y2="13.96"/><polyline class="cls-6" points="48.12 10.79 48.12 4.79 48.62 4.79 54.12 4.79"/><line class="cls-8" x1="65.35" y1="4.79" x2="172.01" y2="4.79"/><line class="cls-6" x1="177.62" y1="4.79" x2="183.62" y2="4.79"/><line class="cls-6" x1="384.62" y1="35.79" x2="384.62" y2="29.79"/><line class="cls-7" x1="384.62" y1="23.46" x2="384.62" y2="13.96"/><polyline class="cls-6" points="384.62 10.79 384.62 4.79 384.07 4.79 378.62 4.79"/><line class="cls-9" x1="365.99" y1="4.79" x2="245.94" y2="4.79"/><line class="cls-6" x1="239.62" y1="4.79" x2="233.62" y2="4.79"/></svg>